<svg xmlns="http://www.w3.org/2000/svg" viewBox="0 0 280 120" width="100%" height="100%">
  <defs>
    <style>
      @import url('https://fonts.googleapis.com/css2?family=Plus+Jakarta+Sans:wght@500;600;700&amp;display=swap');
      .studio-text { font-family: 'Plus Jakarta Sans', sans-serif; font-weight: 600; font-size: 11px; letter-spacing: 14px; text-anchor: middle; }
    </style>
  </defs>
  <path d="M 60 24 L 60 48 L 36 48 L 36 36 A 12 12 0 0 1 48 24 Z" fill="#000000" />
  <path d="M 60 54 L 60 78 L 48 78 A 12 12 0 0 1 36 66 L 36 54 Z" fill="#000000" />
  <path d="M 66 54 L 90 54 L 90 66 A 12 12 0 0 1 78 78 L 66 78 Z" fill="#000000" />
  <path d="M 72 36 L 84 36 M 78 30 L 78 42" fill="none" stroke="#39FF14" stroke-width="6" stroke-linecap="round" stroke-linejoin="round" />
  <path d="M 158 42 A 18 18 0 1 0 122 42 A 18 18 0 1 0 158 42 M 158 42 L 158 60 A 18 18 0 0 1 140 78" fill="none" stroke="#000000" stroke-width="8" stroke-linecap="round" stroke-linejoin="round" />
  <rect x="176" y="24" width="36" height="54" rx="18" fill="none" stroke="#000000" stroke-width="8" stroke-linecap="round" stroke-linejoin="round" />
  <path d="M 224 38 L 240 38 M 232 30 L 232 46" fill="none" stroke="#39FF14" stroke-width="8" stroke-linecap="round" stroke-linejoin="round" />
  <text x="181" y="104" fill="#000000" class="studio-text">STUDIO</text>
</svg>